Music_JohtoTrainer:
	channel_count 3
	channel 1, Music_JohtoTrainer_Ch1
	channel 2, Music_JohtoTrainer_Ch2
	channel 3, Music_JohtoTrainer_Ch3

Music_JohtoTrainer_Ch1:
	tempo 102
	volume 7, 7
	duty_cycle 3
	pitch_offset 1
	vibrato 18, 1, 5
	note_type 12, 9, 2
	rest 8
	octave 3
	note A_, 1
	note G#, 1
	note G_, 1
	note G#, 1
	volume_envelope 11, 2
	note C_, 1
	octave 2
	note B_, 1
	note A#, 1
	note B_, 1
	octave 3
	note C#, 1
	note C_, 1
	octave 2
	note B_, 1
	octave 3
	note C_, 1
	note D_, 1
	note C#, 1
	note C_, 1
	note C#, 1
	note D#, 1
	note D_, 1
	note C#, 1
	note D_, 1
	note E_, 1
	note D#, 1
	note D_, 1
	note D#, 1
	sound_call .sub2
	note D_, 4
	volume_envelope 11, 2
	note E_, 6
	note D_, 6
	note E_, 4
	note E_, 2
	note D_, 2
	note E_, 2
	note F_, 6
	volume_envelope 11, 7
	note F_, 4
	volume_envelope 11, 2
	octave 4
	note E_, 6
	note E_, 6
	note E_, 4
	note E_, 2
	note D_, 2
	note E_, 2
	note F_, 2
	octave 3
	note A_, 2
	note A#, 2
	volume_envelope 11, 7
	note B_, 4
	volume_envelope 11, 2
	octave 4
	sound_call .sub2
	note G_, 4
.mainloop:
	volume_envelope 11, 4
	sound_call .sub1
	volume_envelope 11, 7
	note A#, 4
	volume_envelope 11, 3
	note G_, 1
	note F_, 1
	note E_, 1
	note G_, 1
	volume_envelope 11, 7
	octave 4
	note C_, 4
	volume_envelope 11, 3
	octave 3
	note A_, 1
	note G_, 1
	note F_, 1
	note A_, 1
	volume_envelope 11, 7
	octave 4
	note D_, 4
	volume_envelope 11, 3
	note C_, 1
	octave 3
	note A#, 1
	note A_, 1
	octave 4
	note C_, 1
	volume_envelope 11, 5
	note F_, 2
	note E_, 2
	note D_, 2
	note C_, 2
	sound_call .sub1
	volume_envelope 11, 7
	note F_, 4
	note E_, 2
	note F_, 2
	octave 4
	note C_, 4
	octave 3
	note A#, 2
	octave 4
	note C_, 2
	volume_envelope 10, 0
	octave 3
	note F_, 8
	volume_envelope 10, 7
	note F_, 8
	volume_envelope 11, 7
	note A_, 6
	note E_, 6
	note A#, 4
	octave 4
	note C#, 6
	note F_, 4
	note E_, 2
	note D_, 2
	note F_, 2
	note E_, 2
	note F_, 2
	note E_, 2
	note D_, 2
	note C#, 2
	octave 3
	note A#, 2
	note A_, 2
	note A#, 2
	volume_envelope 10, 0
	note A_, 8
	volume_envelope 10, 7
	note A_, 8
	volume_envelope 11, 7
	note E_, 8
	note D_, 8
	note E_, 8
	note F_, 8
	note E_, 8
	note D_, 8
	note G_, 8
	note F_, 8
	note D_, 8
	note C_, 8
	note D_, 8
	note D#, 8
	note D_, 8
	note C_, 8
	note D_, 8
	note D#, 8
	note D_, 8
	note D#, 8
	note E_, 8
	note F_, 8
	volume_envelope 11, 4
	note G_, 2
	octave 4
	note C_, 2
	octave 3
	note A#, 2
	note G#, 2
	note G_, 2
	note F_, 2
	note D#, 2
	note F_, 2
	note G_, 2
	octave 4
	note C#, 2
	note C_, 2
	note C#, 2
	note D#, 2
	note C#, 2
	note C_, 2
	octave 3
	note A#, 2
	volume_envelope 11, 5
	note D#, 2
	note D_, 2
	volume_envelope 11, 2
	note D#, 4
	volume_envelope 11, 7
	note C_, 8
	note D#, 4
	note C#, 4
	note C_, 4
	note D#, 4
	volume_envelope 11, 5
	note E_, 2
	note D#, 2
	volume_envelope 11, 2
	note E_, 4
	volume_envelope 11, 7
	note C#, 8
	note F_, 4
	note D#, 4
	note C#, 4
	note F_, 4
	volume_envelope 11, 5
	note F#, 2
	note F_, 2
	volume_envelope 11, 2
	note F#, 4
	volume_envelope 11, 7
	note D_, 8
	note F#, 4
	note E_, 4
	note D_, 4
	note F#, 4
	note G_, 8
	note D#, 8
	note A#, 8
	note G_, 8
	volume_envelope 10, 0
	note D#, 4
	volume_envelope 10, 7
	note D#, 12
	rest 16
.loop1:
	volume_envelope 11, 7
	note F_, 8
	volume_envelope 11, 4
	note G_, 4
	note D#, 4
	note F_, 4
	note G_, 2
	note D#, 2
	note F_, 4
	octave 2
	note A#, 4
	volume_envelope 11, 7
	octave 3
	note F_, 8
	volume_envelope 11, 4
	note G_, 4
	note D#, 4
	note F_, 4
	note G_, 2
	note D#, 2
	note F_, 4
	note F_, 4
	sound_loop 2, .loop1
	volume_envelope 11, 7
	note F_, 8
	volume_envelope 11, 4
	note G_, 4
	note D#, 4
	note F_, 4
	note G#, 2
	note G_, 2
	volume_envelope 11, 7
	note F_, 8
	note F_, 8
	volume_envelope 11, 5
	note G_, 4
	note D#, 4
	note F_, 4
	note G_, 2
	note D#, 2
	volume_envelope 11, 7
	note F_, 8
	note F_, 8
	volume_envelope 11, 5
	note G_, 4
	note D#, 4
	note F_, 4
	note G_, 2
	note D#, 2
	volume_envelope 3, -7
	note G#, 8
	volume_envelope 11, 7
	note G#, 8
	volume_envelope 10, 0
	octave 4
	note C_, 8
	volume_envelope 10, 7
	note C_, 8
	volume_envelope 11, 2
	octave 3
	note D#, 6
	note D#, 6
	note D#, 4
	note D#, 6
	note D#, 6
	volume_envelope 11, 7
	note F_, 4
	volume_envelope 11, 2
	note D#, 6
	note D#, 6
	note D#, 4
	note D#, 6
	note D#, 6
	volume_envelope 4, -4
	note F_, 4
	volume_envelope 11, 7
	note G#, 6
	note G_, 6
	note F_, 4
	note D#, 4
	note F_, 4
	note G_, 4
	note D#, 4
	note F_, 4
	octave 4
	note C#, 2
	note C_, 2
	octave 3
	note F_, 4
	octave 4
	note C#, 2
	note C_, 2
	octave 3
	note F_, 2
	note G_, 2
	note G#, 2
	octave 4
	note C_, 2
	note C#, 2
	note C_, 2
	octave 3
	note A#, 2
	note G#, 2
	note G_, 6
	note D#, 6
	note G_, 4
	octave 4
	note C#, 4
	note C_, 4
	octave 3
	note A#, 4
	note G#, 4
	note F_, 4
	note C#, 2
	note D#, 2
	note F_, 4
	note C#, 2
	note D#, 2
	note A#, 4
	note G#, 4
	note G_, 4
	note F_, 4
	volume_envelope 9, 0
	octave 2
	note A#, 8
	octave 3
	note D#, 8
	octave 2
	note A#, 8
	octave 3
	note G_, 8
	volume_envelope 10, 0
	note D#, 8
	note A#, 8
	note G_, 8
	octave 4
	note D#, 8
	volume_envelope 10, 0
	octave 3
	note A#, 8
	volume_envelope 10, 7
	note A#, 8
	volume_envelope 11, 7
	note G_, 6
	note A#, 6
	note G#, 2
	note G_, 2
	volume_envelope 10, 0
	note D#, 8
	volume_envelope 10, 7
	note D#, 8
	volume_envelope 11, 4
	note A#, 6
	note G_, 4
	note G_, 2
	note A#, 12
	rest 16
	rest 8
	volume_envelope 10, 0
	octave 4
	note D_, 4
	volume_envelope 10, 7
	note D_, 12
	volume_envelope 10, 0
	note F_, 8
	volume_envelope 10, 7
	note F_, 8
	volume_envelope 11, 3
	sound_call .sub1
	note F_, 4
	note E_, 2
	note F_, 2
	octave 4
	note C_, 4
	octave 3
	note A#, 2
	octave 4
	note C_, 2
	volume_envelope 10, 0
	octave 3
	note F_, 10
	volume_envelope 10, 7
	note F_, 6
	sound_jump .mainloop

.sub1:
	octave 3
	note E_, 2
	note D_, 2
	note E_, 2
	note A_, 2
	note B_, 2
	note A_, 2
	note G_, 2
	note A_, 2
	octave 4
	note C_, 2
	octave 3
	note A_, 2
	note B_, 2
	note G_, 2
	note A_, 2
	note E_, 2
	note F_, 2
	note D_, 2
	sound_ret

.sub2:
	note E_, 6
	note E_, 6
	note E_, 4
	note E_, 2
	note D_, 2
	note E_, 2
	note F_, 6
	volume_envelope 11, 7
	sound_ret

Music_JohtoTrainer_Ch2:
	duty_cycle 3
	vibrato 8, 3, 6
	pitch_offset 1
	note_type 12, 12, 2
	octave 4
	note G#, 1
	note G_, 1
	note F#, 1
	note F_, 1
	note G#, 1
	note D_, 1
	note D#, 1
	note E_, 1
	note G#, 1
	note D#, 1
	note D_, 1
	note D#, 1
	note G#, 1
	note D_, 1
	note C#, 1
	note D_, 1
	note G#, 1
	note C#, 1
	note C_, 1
	note C#, 1
	note G#, 1
	octave 3
	note A#, 1
	note B_, 1
	octave 4
	note C_, 1
	note G#, 1
	octave 3
	note B_, 1
	note A#, 1
	note B_, 1
	octave 4
	note G#, 1
	octave 3
	note A#, 1
	note A_, 1
	note A#, 1
	volume_envelope 12, 2
	octave 4
.loop1:
	note A_, 6
	octave 3
	note A_, 6
	note A_, 4
	note A_, 6
	note A_, 6
	volume_envelope 12, 7
	note A#, 4
	volume_envelope 12, 2
	sound_loop 2, .loop1
	octave 5
	note C_, 6
	note C_, 6
	note C_, 4
	note C_, 6
	note C_, 6
	volume_envelope 12, 7
	note C#, 4
	volume_envelope 12, 2
	note C_, 2
	volume_envelope 10, 4
	octave 3
	note E_, 2
	note A_, 2
	volume_envelope 12, 2
	octave 5
	note C_, 2
	volume_envelope 10, 4
	octave 3
	note E_, 2
	note A_, 2
	volume_envelope 12, 2
	octave 5
	note C_, 2
	volume_envelope 10, 4
	octave 3
	note E_, 2
	volume_envelope 12, 2
	octave 5
	note C_, 2
	volume_envelope 10, 4
	octave 3
	note E_, 2
	note B_, 2
	volume_envelope 12, 2
	octave 5
	note C_, 2
	volume_envelope 10, 4
	octave 4
	note C_, 2
	note E_, 2
	volume_envelope 12, 7
	note B_, 4
.mainloop:
	sound_call .sub2
	volume_envelope 3, -6
	note A#, 8
	volume_envelope 12, 7
	sound_call .sub1
	volume_envelope 12, 4
	note D_, 4
	octave 3
	note A#, 2
	octave 4
	note D_, 2
	note F_, 2
	note E_, 2
	note D_, 2
	note F_, 2
	note E_, 2
	note D_, 2
	note E_, 2
	note F_, 2
	note A#, 2
	note A_, 2
	note A#, 2
	octave 5
	note D_, 2
	volume_envelope 11, 0
	note C#, 8
	volume_envelope 11, 7
	note C#, 4
	volume_envelope 12, 7
	octave 4
	note A#, 4
	volume_envelope 11, 0
	note A_, 16
	volume_envelope 11, 7
	note A_, 16
.loop4:
	volume_envelope 12, 3
	octave 3
	note A_, 2
	note G_, 2
	note A_, 2
	volume_envelope 12, 7
	note A#, 4
	volume_envelope 12, 3
	note A_, 2
	note G_, 2
	note A#, 2
	sound_loop 3, .loop4
	note A_, 2
	octave 4
	note D_, 2
	note C_, 2
	octave 3
	note A#, 2
	note A_, 2
	note G_, 2
	note A_, 2
	note A#, 2
.loop2:
	note G_, 2
	note F_, 2
	note G_, 2
	volume_envelope 12, 7
	note G#, 4
	volume_envelope 12, 3
	note G_, 2
	note F_, 2
	note G#, 2
	sound_loop 3, .loop2
	note F_, 2
	octave 4
	note C_, 2
	octave 3
	note A#, 2
	note G#, 2
	note G_, 2
	note F_, 2
	note G_, 2
	note G#, 2
	volume_envelope 12, 7
	note G_, 6
	octave 4
	note D_, 6
	note C_, 2
	note D_, 2
	note F_, 4
	note E_, 4
	note D_, 4
	note C_, 4
	volume_envelope 11, 0
	note D#, 10
	volume_envelope 11, 7
	note D#, 6
	volume_envelope 9, 0
	note G_, 8
	volume_envelope 9, 7
	note G_, 8
	volume_envelope 12, 7
	octave 3
	note F_, 8
	note D#, 4
	note F_, 4
	note G_, 4
	note F_, 4
	note D#, 4
	note G_, 4
	note G#, 8
	note F_, 4
	note G_, 4
	note G#, 4
	note G_, 4
	note F_, 4
	note G#, 4
	note A_, 8
	note F#, 4
	note G#, 4
	note A_, 4
	note G#, 4
	note F#, 4
	note A_, 4
	volume_envelope 11, 0
	note A#, 8
	note A#, 8
	volume_envelope 11, 0
	octave 4
	note D#, 8
	volume_envelope 11, 7
	note D#, 8
	volume_envelope 6, 2
	sound_call .sub3
	volume_envelope 8, 2
	sound_call .sub3
	volume_envelope 9, 2
	sound_call .sub3
	volume_envelope 10, 2
	sound_call .sub3
.loop3:
	octave 4
	note D#, 2
	octave 3
	note A#, 2
	octave 4
	note G_, 2
	octave 3
	note A#, 2
	sound_loop 16, .loop2
	sound_call .sub4
	octave 3
	note A#, 2
	volume_envelope 12, 7
	octave 4
	note C_, 8
	sound_call .sub4
	note G_, 2
	volume_envelope 12, 7
	note F_, 8
	sound_call .sub4
	octave 3
	note A#, 2
	volume_envelope 11, 0
	octave 4
	note C_, 8
	volume_envelope 11, 7
	note C_, 8
	volume_envelope 1, -7
	note D#, 12
	volume_envelope 12, 7
	note D#, 4
	volume_envelope 12, 2
	octave 3
	note G_, 4
	note D#, 2
	note G_, 6
	note G_, 4
	note G_, 2
	note F_, 2
	note D#, 2
	note G_, 6
	volume_envelope 12, 7
	note G#, 4
	volume_envelope 12, 2
	note G_, 4
	note D#, 2
	note G_, 6
	note G_, 4
	note G_, 6
	note G_, 6
	volume_envelope 4, -4
	note G#, 4
	sound_call .sub5
	note F_, 8
	volume_envelope 11, 7
	note F_, 8
	volume_envelope 11, 0
	note G#, 8
	volume_envelope 11, 7
	note G#, 8
	sound_call .sub5
	note C#, 8
	volume_envelope 11, 7
	note C#, 8
	volume_envelope 12, 7
	note C#, 4
	note C_, 4
	octave 3
	note A#, 4
	note G#, 4
	note G_, 6
	note D#, 2
	note A#, 8
	note A#, 6
	note G_, 2
	octave 4
	note D#, 8
	note D#, 6
	octave 3
	note A#, 2
	octave 4
	note G_, 8
	note G_, 6
	note D#, 2
	note A#, 8
	note G_, 6
	sound_call .sub6
	note D#, 6
	sound_call .sub6
	sound_call .sub2_2
	volume_envelope 11, 0
	note A#, 8
	volume_envelope 11, 7
	sound_call .sub1
	volume_envelope 12, 7
	note D_, 4
	octave 3
	note A#, 2
	octave 4
	note D_, 2
	note F_, 2
	note E_, 2
	note D_, 2
	note F_, 2
	sound_jump .mainloop

.sub1:
	note A#, 8
.sub2:
	volume_envelope 12, 7
.sub2_2:
	octave 3
	note A_, 6
	octave 4
	note E_, 6
	note D_, 2
	note E_, 2
	note G_, 4
	note F#, 4
	note E_, 4
	note D_, 4
	volume_envelope 11, 0
	note F_, 8
	volume_envelope 11, 7
	note F_, 8
	sound_ret

.sub3:
	octave 3
	note A#, 2
	note D#, 2
	octave 4
	note D#, 2
	octave 3
	note D#, 2
	sound_ret

.sub4:
	volume_envelope 12, 7
	octave 4
	note F_, 4
	volume_envelope 12, 4
	octave 3
	note A#, 2
	octave 4
	note F_, 2
	note G#, 2
	note G_, 2
	note F_, 2
	note D#, 2
	note D_, 1
	note D#, 1
	note D_, 1
	note D#, 1
	note F_, 2
	sound_ret

.sub5:
	volume_envelope 12, 7
	octave 4
	note D#, 6
	note A#, 6
	note G#, 2
	note G_, 2
	note G#, 4
	note G_, 4
	note F_, 4
	note D#, 4
	volume_envelope 11, 0
	sound_ret

.sub6:
	note A#, 6
	note G#, 2
	note G_, 2
	volume_envelope 11, 0
	note D#, 8
	volume_envelope 11, 7
	note D#, 8
	volume_envelope 12, 7
	sound_ret

Music_JohtoTrainer_Ch3:
	note_type 12, 2, 4
	octave 4
	note E_, 1
	note D#, 1
	note D_, 1
	note C#, 1
	note D_, 1
	note C#, 1
	note C_, 1
	octave 3
	note B_, 1
	octave 4
	note C_, 1
	octave 3
	note B_, 1
	note A#, 1
	note A_, 1
	note A#, 1
	note A_, 1
	note G#, 1
	note G_, 1
	note G#, 1
	note G_, 1
	note F#, 1
	note F_, 1
	note F#, 1
	note F_, 1
	note E_, 1
	note D#, 1
	note E_, 2
	note A#, 2
	note A_, 2
	note G#, 2
.loop1:
	note A_, 2
	note E_, 2
	note F#, 2
	note G_, 2
	note E_, 2
	note F#, 2
	note G_, 2
	note E_, 2
	sound_loop 3, .loop1
	note A_, 2
	note E_, 2
	note F#, 2
	note G_, 2
	note E_, 2
	note F#, 2
	note G_, 2
	note G#, 2
	sound_call .sub1
	octave 4
	note C_, 2
	note C#, 2
	note C_, 2
	octave 3
	note A#, 2
	sound_call .sub1
	note G_, 2
	note A_, 2
	note A#, 2
	note G_, 2
.mainloop:
	sound_call .sub2
	note E_, 2
	sound_call .sub3
	sound_call .sub2
	note A_, 2
	sound_call .sub3
	octave 3
.loop2:
	note E_, 2
	note A_, 2
	sound_loop 6, .loop2
	note E_, 2
	note D_, 2
	note E_, 2
	note F_, 2
.loop3:
	note E_, 2
	note A_, 2
	sound_loop 4, .loop3
	note E_, 2
	octave 4
	note F_, 2
	note E_, 2
	note D_, 2
	octave 3
	note A_, 2
	note G#, 2
	note A_, 2
	note A#, 2
.loop4:
	note D_, 2
	note A_, 2
	sound_loop 7, .loop4
	note G_, 2
	note A_, 2
.loop5:
	note D_, 2
	note A_, 2
	sound_loop 4, .loop5
	note D_, 2
	octave 4
	note D_, 2
	note C_, 2
	octave 3
	note A#, 2
	note A_, 2
	note G_, 2
	note A_, 2
	note A#, 2
.loop6:
	note C_, 2
	note G_, 2
	sound_loop 7, .loop6
	note F_, 2
	note G_, 2
	sound_call .sub5
	note D_, 2
	note G_, 8
	note F_, 8
	note E_, 8
	note D#, 8
.loop7:
	octave 3
	note D#, 2
	note A#, 2
	note D#, 2
	note A#, 2
	note D#, 2
	note A#, 2
	note A_, 2
	octave 4
	note C_, 2
	sound_loop 2, .loop7
	sound_call .sub5
	note G_, 2
.loop8:
	note C#, 2
	note G#, 2
	sound_loop 7, .loop8
	note B_, 2
	note A_, 2
.loop9:
	note D_, 2
	note A_, 2
	sound_loop 5, .loop9
	note B_, 2
	note A_, 2
	note G#, 2
	note F#, 2
	note G#, 2
	note A_, 2
.loop10:
	note A#, 4
	note D#, 4
	sound_loop 4, .loop10
.loop11:
	octave 4
	note G_, 4
	octave 3
	note A#, 4
	sound_loop 4, .loop11
.loop12:
	sound_call .sub6
	note D#, 2
	note F_, 8
	sound_call .sub6
	octave 4
	note C_, 2
	octave 3
	note A#, 8
	sound_loop 2, .loop12
	octave 4
	note C#, 8
	note C_, 8
	octave 3
	note A#, 8
	note G#, 8
	note F_, 8
	note G_, 8
	note G#, 8
	note A#, 8
	note F_, 8
	note G_, 8
	note G#, 4
	note D#, 2
	note G#, 2
	octave 4
	note C_, 8
	note C_, 8
	note D#, 8
	octave 3
	note A#, 2
	note G#, 2
	note G_, 2
	note F_, 2
	sound_call .sub4
	note C#, 2
	note C_, 2
	octave 3
	note A#, 2
	note G#, 2
	note G_, 2
	note G#, 2
	sound_call .sub4
	note C_, 2
	note C#, 2
	note D#, 2
	note C#, 2
	note C_, 2
	octave 3
	note A#, 2
.loop13:
	note D#, 2
	note A#, 2
	sound_loop 8, .loop13
.loop14:
	note C#, 2
	note G#, 2
	sound_loop 6, .loop14
	note C#, 2
	octave 4
	note C_, 2
	octave 3
	note A#, 2
	note G#, 2
.loop15:
	note D#, 2
	note A#, 2
	sound_loop 8, .loop15
.loop19:
	note C#, 2
	note G#, 2
	sound_loop 4, .loop19
	note C#, 2
	octave 4
	note C#, 2
	note C_, 2
	octave 3
	note A#, 2
	note G_, 2
	note G#, 2
	note A#, 2
	octave 4
	note C_, 2
	octave 3
	note D#, 8
	note C#, 8
	note C_, 8
	octave 2
	note A#, 8
	octave 3
	note A#, 8
	note G#, 8
	note G_, 8
	note F_, 8
	octave 4
	note D#, 8
	note D#, 8
	octave 3
	note A#, 8
	note A#, 8
	note G_, 8
	note G_, 8
	note D#, 8
	note D#, 4
	note A#, 4
	note A_, 16
	octave 4
	note C_, 16
	octave 3
	note A#, 16
	octave 4
	note D_, 16
	octave 3
	note A_, 16
	octave 4
	note C_, 16
	octave 3
	note A#, 16
	octave 4
	note D_, 8
	rest 2
	octave 3
	note A_, 2
	note A#, 2
	octave 4
	note D_, 2
	sound_jump .mainloop

.sub1:
	octave 4
	note C_, 2
	octave 3
	note G_, 2
	note A_, 2
	note A#, 2
	note G_, 2
	note A_, 2
	note A#, 2
	note G_, 2
	octave 4
	note C_, 2
	octave 3
	note G_, 2
	note A_, 2
	note A#, 2
	sound_ret

.sub2:
	octave 3
	note E_, 2
	note A_, 2
	note E_, 2
	note A_, 2
	note E_, 2
	note F#, 2
	note G_, 2
	note A_, 2
	note E_, 2
	note A_, 2
	note E_, 2
	note A_, 2
	note E_, 2
	note F#, 2
	note G_, 2
	sound_ret

.sub3:
	octave 3
	note F_, 2
	note A#, 2
	note F_, 2
	note A#, 2
	note F_, 2
	note A_, 2
	note A#, 2
	octave 4
	note D_, 2
	sound_loop 2, .sub3
	sound_ret

.sub4:
	note D#, 2
	note A#, 2
	note D#, 2
	note A#, 2
	note D#, 2
	note A#, 2
	octave 4
	note C#, 2
	octave 3
	note A#, 2
	note D#, 2
	note A#, 2
	octave 4
	sound_ret

.sub5:
	octave 3
	note C_, 2
	note G_, 2
	sound_loop 4, .sub5
	note C_, 2
	octave 4
	note C_, 2
	octave 3
	note A#, 2
	note G#, 2
	note G_, 2
	note F_, 2
	note D#, 2
	sound_ret

.sub6:
	note A#, 4
	note D#, 2
	note A#, 2
	octave 4
	note C#, 2
	note C_, 2
	octave 3
	note A#, 2
	note G#, 2
	note G_, 1
	note G#, 1
	note G_, 1
	note G#, 1
	note A#, 2
	sound_ret
