Music_PokeChannel:
	channel_count 4
	channel 1, Music_PokeChannel_Ch1
	channel 2, Music_PokeChannel_Ch2
	channel 3, Music_PokeChannel_Ch3
	; channel 4, Music_PokeChannel_Ch4

Music_PokeChannel_Ch1:
	tempo 268
	volume 7, 7
	pitch_offset 1
	duty_cycle 3
	note_type 6, 10, 2
	octave 2
	note B_, 1
	rest 2
	octave 3
	note C_, 1
	note D_, 1
	rest 1
	note G_, 4
	octave 2
	note B_, 2
	note B_, 4
	octave 3
	note E_, 1
	rest 2
	note F#, 1
	note G_, 1
	rest 1
	note E_, 4
	note E_, 2
	note D_, 2
	note C_, 2
	note G_, 2
	note D_, 2
	octave 2
	note B_, 4
	octave 3
	note D#, 2
	note D#, 2
	note D_, 2
	note C_, 2
	note F#, 4
	note G_, 1
	note F#, 1
	note E_, 1
	note D_, 1
	octave 2
	note B_, 4
	sound_ret

Music_PokeChannel_Ch2:
	duty_cycle 1
	vibrato 10, 3, 3
	note_type 6, 14, 1
	octave 3
	note G_, 1
	rest 2
	note A_, 1
	note B_, 1
	rest 1
	volume_envelope 13, 3
	octave 4
	note D_, 4
	volume_envelope 14, 1
	octave 3
	note G_, 2
	note G_, 4
	octave 4
	note C_, 1
	rest 2
	note D_, 1
	note E_, 1
	rest 1
	volume_envelope 13, 3
	note G_, 4
	volume_envelope 14, 1
	octave 3
	note G_, 2
	note G_, 4
	duty_cycle 2
	octave 4
	note B_, 2
	note A#, 2
	volume_envelope 13, 3
	note B_, 4
	volume_envelope 14, 1
	octave 5
	note C_, 2
	note C_, 2
	octave 4
	note A#, 2
	note G#, 6
	note B_, 1
	note A_, 1
	note G_, 1
	note F#, 1
	note G_, 4
	sound_ret

Music_PokeChannel_Ch3:
	note_type 6, 1, 4
	octave 4
	note D_, 1
	rest 1
	note D_, 1
	rest 1
	note G_, 1
	rest 1
	note B_, 4
	note E_, 1
	rest 1
	note D_, 1
	rest 1
	note E_, 1
	rest 1
	note C_, 1
	rest 1
	note E_, 1
	rest 1
	note G_, 1
	rest 1
	octave 5
	note C_, 4
	octave 4
	note G_, 2
	note F#, 2
	note E_, 2
	octave 3
	note G_, 1
	rest 1
	note B_, 1
	rest 1
	octave 4
	note D_, 1
	rest 1
	note G_, 1
	rest 1
	octave 3
	note G#, 1
	rest 1
	octave 4
	note C_, 1
	rest 1
	note D#, 1
	rest 1
	note G#, 1
	rest 1
	octave 3
	note A_, 1
	rest 1
	octave 4
	note C_, 1
	rest 1
	note D_, 1
	rest 1
	note F#, 1
	rest 1
	octave 3
	note G_, 1
	rest 3
	sound_ret
